<?xml version="1.0" encoding="UTF-8"?>
<svg id="Layer_1" data-name="Layer 1" xmlns="http://www.w3.org/2000/svg" viewBox="0 0 19.5 19.5">
  <path d="M0,9.75C0,4.37,4.37,0,9.75,0s9.75,4.37,9.75,9.75-4.37,9.75-9.75,9.75S0,15.13,0,9.75ZM9.75,1.5C5.2,1.5,1.5,5.2,1.5,9.75s3.7,8.25,8.25,8.25,8.25-3.7,8.25-8.25S14.3,1.5,9.75,1.5Z" style="fill: #1e293b; fill-rule: evenodd;"/>
  <path d="M6.22,6.22c.29-.29,.77-.29,1.06,0l6,6c.29,.29,.29,.77,0,1.06s-.77,.29-1.06,0L6.22,7.28c-.29-.29-.29-.77,0-1.06Z" style="fill: #1e293b; fill-rule: evenodd;"/>
  <path d="M13.28,6.22c.29,.29,.29,.77,0,1.06l-6,6c-.29,.29-.77,.29-1.06,0-.29-.29-.29-.77,0-1.06l6-6c.29-.29,.77-.29,1.06,0Z" style="fill: #1e293b; fill-rule: evenodd;"/>
</svg>