<?xml version="1.0" encoding="UTF-8"?>
<svg id="Layer_1" data-name="Layer 1" xmlns="http://www.w3.org/2000/svg" viewBox="0 0 22 22">
  <path d="M12,6.5c0,.27-.11,.52-.29,.71-.19,.19-.44,.29-.71,.29s-.52-.11-.71-.29c-.19-.19-.29-.44-.29-.71s.11-.52,.29-.71c.19-.19,.44-.29,.71-.29s.52,.11,.71,.29c.19,.19,.29,.44,.29,.71Zm-3,3.75c0-.2,.08-.39,.22-.53,.14-.14,.33-.22,.53-.22h1.5c.2,0,.39,.08,.53,.22,.14,.14,.22,.33,.22,.53v4.25h.75c.2,0,.39,.08,.53,.22,.14,.14,.22,.33,.22,.53s-.08,.39-.22,.53c-.14,.14-.33,.22-.53,.22h-3c-.2,0-.39-.08-.53-.22-.14-.14-.22-.33-.22-.53s.08-.39,.22-.53c.14-.14,.33-.22,.53-.22h.75v-3.5h-.75c-.2,0-.39-.08-.53-.22-.14-.14-.22-.33-.22-.53Z" style="fill: #0f172a;"/>
  <path d="M11,0c6.08,0,11,4.93,11,11s-4.92,11-11,11S0,17.08,0,11,4.93,0,11,0ZM1.5,11c0,2.52,1,4.94,2.78,6.72,1.78,1.78,4.2,2.78,6.72,2.78s4.94-1,6.72-2.78c1.78-1.78,2.78-4.2,2.78-6.72s-1-4.94-2.78-6.72c-1.78-1.78-4.2-2.78-6.72-2.78s-4.94,1-6.72,2.78c-1.78,1.78-2.78,4.2-2.78,6.72Z" style="fill: #0f172a;"/>
</svg>